<svg width="32" height="32" viewBox="0 0 32 32" fill="none" xmlns="http://www.w3.org/2000/svg">
<g id="arrow-down-circle">
<path id="Vector" d="M16 29C23.1794 29 29 23.1794 29 16C29 8.82062 23.1794 3 16 3C8.82062 3 3 8.82062 3 16C3 23.1794 8.82062 29 16 29ZM10.29 15.7094C10.3825 15.6161 10.4924 15.542 10.6136 15.4913C10.7347 15.4405 10.8647 15.4141 10.996 15.4136C11.1274 15.4131 11.2575 15.4384 11.3791 15.4882C11.5006 15.538 11.6111 15.6112 11.7044 15.7037L15 18.9737V10.625C15 10.3598 15.1054 10.1054 15.2929 9.91789C15.4804 9.73036 15.7348 9.625 16 9.625C16.2652 9.625 16.5196 9.73036 16.7071 9.91789C16.8946 10.1054 17 10.3598 17 10.625V18.9737L20.2956 15.7037C20.4841 15.5169 20.7391 15.4126 21.0044 15.4138C21.2698 15.415 21.5238 15.5215 21.7106 15.71C21.8974 15.8985 22.0017 16.1534 22.0006 16.4188C21.9994 16.6842 21.8928 16.9382 21.7044 17.125L16.7044 22.0869C16.5171 22.2727 16.2639 22.377 16 22.377C15.7361 22.377 15.4829 22.2727 15.2956 22.0869L10.2956 17.125C10.2022 17.0325 10.1279 16.9225 10.077 16.8012C10.0262 16.6799 9.99973 16.5498 9.99921 16.4184C9.99869 16.2869 10.0241 16.1566 10.074 16.0349C10.1239 15.9132 10.1973 15.8026 10.29 15.7094Z" fill="#8F98A4"/>
</g>
</svg>
