<svg width="18" height="18" viewBox="0 0 18 18" fill="none" xmlns="http://www.w3.org/2000/svg">
<g id="crypto">
<g id="Avalanche (AVAX)">
<circle id="Avalanche (AVAX)_2" cx="9" cy="9" r="8" fill="#E84142"/>
<path id="Avalanche (AVAX)_3" fill-rule="evenodd" clip-rule="evenodd" d="M9.47867 3.37468C9.20151 2.89594 8.76056 2.89594 8.48339 3.37468L3.45032 12.2377C3.17316 12.7227 3.39993 13.107 3.95426 13.107H6.48025C6.99048 13.0755 7.45032 12.8046 7.72749 12.3763L10.77 7.10381C10.9905 6.65027 10.9905 6.11484 10.77 5.66129L9.86292 4.06759L9.47867 3.37468ZM12.8237 9.20788C12.5465 8.72914 12.0993 8.72914 11.8221 9.20788L10.0646 12.2378C9.79374 12.7165 10.0205 13.1071 10.5685 13.1071H14.0457C14.6 13.1071 14.8268 12.7165 14.5496 12.2378L12.8237 9.20788Z" fill="white"/>
</g>
<rect x="0.5" y="0.5" width="17" height="17" rx="8.5" stroke="white"/>
</g>
</svg>
