<svg width="40" height="40" viewBox="0 0 40 40" fill="none" xmlns="http://www.w3.org/2000/svg">
<rect width="40" height="40" rx="20" fill="#44484F"/>
<path d="M16.875 27.5C17.5654 27.5 18.125 26.9404 18.125 26.25C18.125 25.5596 17.5654 25 16.875 25C16.1846 25 15.625 25.5596 15.625 26.25C15.625 26.9404 16.1846 27.5 16.875 27.5Z" fill="#F5F5F5"/>
<path d="M25.625 27.5C26.3154 27.5 26.875 26.9404 26.875 26.25C26.875 25.5596 26.3154 25 25.625 25C24.9346 25 24.375 25.5596 24.375 26.25C24.375 26.9404 24.9346 27.5 25.625 27.5Z" fill="#F5F5F5"/>
<path d="M27.8984 14.793C27.7578 14.5859 27.5469 14.4414 27.3008 14.3945C27.2422 14.3828 27.1797 14.375 27.1172 14.375H15.2305L14.9922 13.0156C14.9414 12.7187 14.6797 12.5 14.375 12.5H11.875C11.5312 12.5 11.25 12.7812 11.25 13.125C11.25 13.4688 11.5312 13.75 11.875 13.75H13.8516L15.6367 23.8594C15.6875 24.1562 15.9492 24.375 16.2539 24.375H26.2539C26.5977 24.375 26.8789 24.0938 26.8789 23.75C26.8789 23.4062 26.5977 23.125 26.2539 23.125H16.7734L16.5547 21.875H25.9961C26.4414 21.875 26.8281 21.5586 26.9141 21.1211L28.0391 15.4961C28.0859 15.25 28.0391 15 27.8984 14.793ZM25.7383 20.625H16.332L15.4492 15.625H26.7344L25.7383 20.625Z" fill="#F5F5F5"/>
</svg>
