<svg width="16" height="17" viewBox="0 0 16 17" fill="none" xmlns="http://www.w3.org/2000/svg">
<path fill-rule="evenodd" clip-rule="evenodd" d="M3.49852 1.5L3.5 1.5H10.25L10.2514 1.5C10.8473 1.5017 11.4182 1.73914 11.8395 2.16047C12.2609 2.58179 12.4983 3.15274 12.5 3.74858C12.5 3.75252 12.5 3.75647 12.4999 3.76041L12.4949 4H12.7188C13.9786 4 15 5.02135 15 6.28125V13.2188C15 14.4786 13.9786 15.5 12.7188 15.5H5.78125C4.52135 15.5 3.5 14.4786 3.5 13.2188V13H3.25L3.24858 13C2.65274 12.9983 2.08179 12.7609 1.66047 12.3395C1.23914 11.9182 1.0017 11.3473 1 10.7514L1 10.75V4L1 3.99852C1.00196 3.33648 1.26582 2.7021 1.73396 2.23396C2.2021 1.76582 2.83648 1.50196 3.49852 1.5ZM4.5 13.2188C4.5 13.9264 5.07364 14.5 5.78125 14.5H12.7188C13.4264 14.5 14 13.9264 14 13.2188V6.28125C14 5.57364 13.4264 5 12.7188 5H11.9861C11.9851 5 11.9841 5 11.9831 5H5.78125C5.07364 5 4.5 5.57364 4.5 6.28125V13.2188ZM11.4947 4H5.78125C4.52135 4 3.5 5.02135 3.5 6.28125V12H3.25081C2.91942 11.9989 2.60191 11.8668 2.36757 11.6324C2.13324 11.3981 2.00111 11.0806 2 10.7492V4.00079C2.00136 3.60319 2.1599 3.22224 2.44107 2.94107C2.72224 2.6599 3.10319 2.50136 3.50079 2.5H10.2492C10.5806 2.50111 10.8981 2.63324 11.1324 2.86757C11.3656 3.10078 11.4976 3.41636 11.5 3.74601L11.4947 4Z" fill="#282B30"/>
</svg>
