<svg width="20" height="20" viewBox="0 0 20 20" fill="none" xmlns="http://www.w3.org/2000/svg">
<g id="eye">
<path id="Vector" fill-rule="evenodd" clip-rule="evenodd" d="M0.847261 9.30373C3.38893 5.66043 6.68448 3.75 9.98603 3.75C13.8635 3.75 17.2037 6.27608 19.1743 9.31969L19.1753 9.32112C19.3057 9.52375 19.375 9.75962 19.375 10.0006C19.375 10.2411 19.3059 10.4766 19.176 10.6789C17.207 13.7617 13.8885 16.25 9.98603 16.25C6.04202 16.25 2.78744 13.7669 0.823344 10.6931C0.689887 10.4859 0.620667 10.2438 0.624412 9.9973C0.628166 9.75021 0.705081 9.50976 0.845436 9.30636L0.847261 9.30373ZM1.87427 10.0163L1.876 10.019C3.69011 12.8587 6.59771 15 9.98603 15C13.3364 15 16.3067 12.8496 18.1229 10.0054L18.1241 10.0035C18.1247 10.0027 18.125 10.0016 18.125 10.0006C18.125 10.0001 18.125 9.99971 18.1249 9.99928C18.1247 9.99875 18.1245 9.99823 18.1242 9.99775C16.301 7.18262 13.3064 5 9.98603 5C7.19923 5 4.24948 6.61296 1.87427 10.0163ZM9.99931 7.5C8.61859 7.5 7.49931 8.61929 7.49931 10C7.49931 11.3807 8.61859 12.5 9.99931 12.5C11.38 12.5 12.4993 11.3807 12.4993 10C12.4993 8.61929 11.38 7.5 9.99931 7.5ZM6.24931 10C6.24931 7.92893 7.92824 6.25 9.99931 6.25C12.0704 6.25 13.7493 7.92893 13.7493 10C13.7493 12.0711 12.0704 13.75 9.99931 13.75C7.92824 13.75 6.24931 12.0711 6.24931 10Z" fill="#464E59"/>
</g>
</svg>
