<svg width="20" height="20" viewBox="0 0 20 20" fill="none" xmlns="http://www.w3.org/2000/svg">
<path d="M10 18.125C5.51992 18.125 1.875 14.4738 1.875 9.98633C1.875 7.54688 2.93945 5.25977 4.79531 3.71484C4.88197 3.64227 4.98208 3.58751 5.08993 3.55369C5.19778 3.51986 5.31124 3.50765 5.42382 3.51774C5.53639 3.52783 5.64587 3.56003 5.74599 3.6125C5.8461 3.66496 5.93488 3.73666 6.00725 3.82349C6.07961 3.91031 6.13414 4.01056 6.1677 4.11849C6.20126 4.22642 6.21321 4.33991 6.20285 4.45246C6.19248 4.56501 6.16002 4.67442 6.10732 4.7744C6.05461 4.87439 5.9827 4.963 5.8957 5.03516C4.43281 6.25391 3.59375 8.05859 3.59375 9.98633C3.59375 13.5262 6.46758 16.4062 10 16.4062C13.5324 16.4062 16.4062 13.5262 16.4062 9.98633C16.4061 9.04029 16.1965 8.10602 15.7924 7.25063C15.3883 6.39524 14.7998 5.63997 14.0691 5.03906C13.9786 4.9684 13.9032 4.88032 13.8473 4.78002C13.7914 4.67972 13.7562 4.56924 13.7437 4.4551C13.7312 4.34096 13.7417 4.22547 13.7746 4.11546C13.8075 4.00545 13.8621 3.90315 13.9352 3.8146C14.0083 3.72605 14.0984 3.65304 14.2002 3.5999C14.302 3.54675 14.4134 3.51454 14.5278 3.50517C14.6423 3.4958 14.7574 3.50945 14.8665 3.54533C14.9756 3.58121 15.0764 3.63858 15.1629 3.71406C16.0892 4.47592 16.8352 5.4335 17.3474 6.518C17.8595 7.60249 18.1251 8.78698 18.125 9.98633C18.125 14.4738 14.4801 18.125 10 18.125Z" fill="#E11900"/>
<path d="M10 10.625C9.77208 10.625 9.55349 10.5345 9.39233 10.3733C9.23117 10.2121 9.14062 9.99355 9.14062 9.76562V2.73438C9.14062 2.50645 9.23117 2.28787 9.39233 2.12671C9.55349 1.96554 9.77208 1.875 10 1.875C10.2279 1.875 10.4465 1.96554 10.6077 2.12671C10.7688 2.28787 10.8594 2.50645 10.8594 2.73438V9.76562C10.8594 9.99355 10.7688 10.2121 10.6077 10.3733C10.4465 10.5345 10.2279 10.625 10 10.625Z" fill="#E11900"/>
</svg>
