<svg width="360" height="217" viewBox="0 0 360 217" fill="none" xmlns="http://www.w3.org/2000/svg">
<path d="M-17 1C15.1667 11.1667 73.9 24.2 93.5 49C118 80 57.5 90 40 65.5C22.5 41 64.5 2.5 125.5 58.5C186.5 114.5 187.5 111 247.5 175C307.5 239 339 203 308 159.5C277 116 248 139.331 277.5 171C307 202.669 339 164 376.5 212.5" stroke="url(#paint0_linear_1001_45)" stroke-width="1.5" stroke-dasharray="12 12"/>
<path fill-rule="evenodd" clip-rule="evenodd" d="M55.0435 150.076C60.9828 146.647 63.0177 139.052 59.5887 133.113C63.0177 139.052 70.6122 141.087 76.5515 137.658C70.6122 141.087 68.5773 148.682 72.0063 154.621C68.5773 148.682 60.9828 146.647 55.0435 150.076Z" fill="#FBF29D"/>
<path fill-rule="evenodd" clip-rule="evenodd" d="M180.958 6.57414C184.377 8.54809 188.748 7.37666 190.722 3.95769C188.748 7.37666 189.92 11.7485 193.339 13.7224C189.92 11.7485 185.548 12.9199 183.574 16.3389C185.548 12.9199 184.377 8.54809 180.958 6.57414Z" fill="#C9AFFB"/>
<path fill-rule="evenodd" clip-rule="evenodd" d="M191.965 162.742C194.191 162.267 196.37 161.661 198.491 160.934V95.0351H191.965L209.368 68.9298L226.772 95.0351H221.333V146.25C231.042 136.029 237 122.21 237 107C237 75.5198 211.48 50 180 50C148.52 50 123 75.5198 123 107C123 122.77 129.404 137.045 139.754 147.364V123.316H162.596V161.294C164.72 161.975 166.899 162.534 169.123 162.963V104.825H191.965V162.742ZM149.577 161.035C130.728 150.4 118 130.186 118 107C118 72.7583 145.758 45 180 45C214.242 45 242 72.7583 242 107C242 128.569 230.986 147.566 214.275 158.672L214.282 158.692C214.268 158.697 214.254 158.702 214.239 158.707L214.204 158.72C213.337 159.294 212.455 159.848 211.558 160.379C210.739 161.057 209.866 161.923 209.042 162.973C207.768 164.596 206.676 166.578 206.105 168.844V177.877C206.105 178.982 205.21 179.877 204.105 179.877H155.895C154.79 179.877 153.895 178.982 153.895 177.877V168.685C153.356 166.455 152.358 164.513 151.195 162.927C150.668 162.208 150.118 161.577 149.577 161.035ZM159.07 183.14C157.413 183.14 156.07 184.483 156.07 186.14V186.667C156.07 188.324 157.413 189.667 159.07 189.667H200.93C202.587 189.667 203.93 188.324 203.93 186.667V186.14C203.93 184.483 202.587 183.14 200.93 183.14H159.07ZM156.07 195.93C156.07 194.273 157.413 192.93 159.07 192.93H200.93C202.587 192.93 203.93 194.273 203.93 195.93V196.456C203.93 198.113 202.587 199.456 200.93 199.456H159.07C157.413 199.456 156.07 198.113 156.07 196.456V195.93ZM172.298 202.719C171.746 202.719 171.298 203.167 171.298 203.719V206.246C171.298 207.902 172.641 209.246 174.298 209.246H185.702C187.359 209.246 188.702 207.902 188.702 206.246V203.719C188.702 203.167 188.254 202.719 187.702 202.719H172.298Z" fill="url(#paint1_linear_1001_45)"/>
<defs>
<linearGradient id="paint0_linear_1001_45" x1="394.5" y1="145" x2="-45" y2="145" gradientUnits="userSpaceOnUse">
<stop stop-color="#CED1D5"/>
<stop offset="0.46875" stop-color="#CED1D5" stop-opacity="0"/>
<stop offset="1" stop-color="#CED1D5"/>
</linearGradient>
<linearGradient id="paint1_linear_1001_45" x1="180" y1="45" x2="180" y2="282" gradientUnits="userSpaceOnUse">
<stop stop-color="#C4A8FF"/>
<stop offset="1"/>
</linearGradient>
</defs>
</svg>
