<svg width="360" height="224" viewBox="0 0 360 224" fill="none" xmlns="http://www.w3.org/2000/svg">
<path d="M-17 12C15.1667 22.1667 73.9 35.2 93.5 60C118 91 57.5 101 40 76.5C22.5 52 64.5 13.5 125.5 69.5C186.5 125.5 187.5 122 247.5 186C307.5 250 339 214 308 170.5C277 127 248 150.331 277.5 182C307 213.669 339 175 376.5 223.5" stroke="url(#paint0_linear_1101_50)" stroke-width="1.5" stroke-dasharray="12 12"/>
<path fill-rule="evenodd" clip-rule="evenodd" d="M212.574 6.1906C215.993 8.16455 220.365 6.99312 222.339 3.57414C220.365 6.99312 221.537 11.3649 224.955 13.3389C221.537 11.3649 217.165 12.5364 215.191 15.9553C217.165 12.5364 215.993 8.16455 212.574 6.1906Z" fill="#C9AFFB"/>
<path d="M140.5 68L245.5 43V119L140.5 144.5L140.5 68Z" fill="#C3A8FE"/>
<path d="M157.5 31.5L137 43L157.5 55V31.5Z" fill="#A57CFE"/>
<path d="M127 42L114 49.5L127 57V42Z" fill="#C3A8FE"/>
<path d="M123 19V35.5L137 27L123 19Z" fill="#F2ECFF"/>
<path d="M166.5 27L245.5 43V119.5L166.5 103.5V27Z" fill="#B18DFF"/>
<path fill-rule="evenodd" clip-rule="evenodd" d="M244.605 119.217L167 103.5V61.6905L245.5 43V119L244.605 119.217Z" fill="#905EFE" fill-opacity="0.6"/>
<defs>
<linearGradient id="paint0_linear_1101_50" x1="394.5" y1="156" x2="-45" y2="156" gradientUnits="userSpaceOnUse">
<stop stop-color="#CED1D5"/>
<stop offset="0.46875" stop-color="#CED1D5" stop-opacity="0"/>
<stop offset="1" stop-color="#CED1D5"/>
</linearGradient>
</defs>
</svg>
