<svg width="34" height="34" viewBox="0 0 34 34" fill="none" xmlns="http://www.w3.org/2000/svg">
<path fill-rule="evenodd" clip-rule="evenodd" d="M19.26 23.7513C19.6806 23.6614 20.092 23.547 20.4928 23.4097V10.9622H19.26L22.5474 6.03119L25.8347 10.9622H24.8074V20.6361C26.6413 18.7054 27.7666 16.0952 27.7666 13.2222C27.7666 7.27595 22.9462 2.45555 16.9999 2.45555C11.0537 2.45555 6.23326 7.27595 6.23326 13.2222C6.23326 16.2011 7.44303 18.8974 9.39805 20.8467V16.3041H13.7127V23.4778C14.1139 23.6063 14.5253 23.7119 14.9454 23.7931V12.8113H19.26V23.7513ZM11.2535 23.4289C7.69296 21.42 5.28882 17.6019 5.28882 13.2222C5.28882 6.75435 10.5321 1.51111 16.9999 1.51111C23.4678 1.51111 28.711 6.75435 28.711 13.2222C28.711 17.2963 26.6307 20.8845 23.4743 22.9825L23.4755 22.9863L23.4606 22.9916C23.2969 23.1 23.1304 23.2045 22.9611 23.3048C22.8064 23.4328 22.6414 23.5965 22.4857 23.7949C22.245 24.1015 22.0389 24.4758 21.931 24.9039V26.6101C21.931 26.8188 21.7619 26.9879 21.5532 26.9879H12.4468C12.2381 26.9879 12.069 26.8188 12.069 26.6101V24.8739C11.9674 24.4527 11.7788 24.0858 11.5591 23.7862C11.4595 23.6504 11.3557 23.5312 11.2535 23.4289ZM13.0466 27.6043C12.7336 27.6043 12.4799 27.858 12.4799 28.171V28.2704C12.4799 28.5833 12.7336 28.837 13.0466 28.837H20.9534C21.2664 28.837 21.5201 28.5833 21.5201 28.2704V28.171C21.5201 27.858 21.2664 27.6043 20.9534 27.6043H13.0466ZM12.4799 30.0201C12.4799 29.7071 12.7336 29.4534 13.0466 29.4534H20.9534C21.2664 29.4534 21.5201 29.7071 21.5201 30.0201V30.1195C21.5201 30.4325 21.2664 30.6862 20.9534 30.6862H13.0466C12.7336 30.6862 12.4799 30.4325 12.4799 30.1195V30.0201ZM15.5452 31.3025C15.4409 31.3025 15.3564 31.3871 15.3564 31.4914V31.9686C15.3564 32.2816 15.6101 32.5353 15.923 32.5353H18.077C18.39 32.5353 18.6437 32.2816 18.6437 31.9686V31.4914C18.6437 31.3871 18.5591 31.3025 18.4548 31.3025H15.5452Z" fill="#C4A8FF"/>
</svg>
