<svg width="80" height="80" viewBox="0 0 80 80" fill="none" xmlns="http://www.w3.org/2000/svg">
<circle cx="40" cy="40" r="40" fill="#FEE0E0"/>
<path d="M29.7118 34.1229L29.7118 34.1228C30.2437 33.5384 31.0118 33.21 31.8768 33.21C32.7322 33.21 33.495 33.5378 34.0223 34.1298L34.0223 34.1298L34.0243 34.1319C34.5737 34.7343 34.8452 35.5651 34.7795 36.4767L34.7794 36.4769C34.7132 37.4084 34.3378 38.2666 33.7977 38.8889C33.2564 39.5126 32.5664 39.8824 31.8724 39.8824C31.1783 39.8824 30.4883 39.5126 29.947 38.8889C29.407 38.2666 29.0316 37.4084 28.9653 36.4769C28.8993 35.5504 29.1719 34.7154 29.7118 34.1229ZM22.9063 51.2573L22.9074 51.2586C23.218 51.6341 23.6657 51.8465 24.161 51.8465H39.5925C40.0878 51.8465 40.5355 51.6341 40.8461 51.2586L40.8472 51.2573C41.1822 50.8464 41.3099 50.2965 41.2154 49.7528L41.2153 49.7523C40.8349 47.5866 39.6377 45.7682 37.7693 44.4953L37.7691 44.4952C36.1113 43.3673 34.0186 42.7495 31.8768 42.7495C29.735 42.7495 27.6424 43.3672 25.9846 44.495C24.1156 45.7637 22.9186 47.5869 22.5382 49.7523L22.5381 49.7528C22.4437 50.2965 22.5713 50.8464 22.9063 51.2573L22.9063 51.2573ZM28.3163 32.8095C27.4023 33.8101 26.9628 35.1651 27.0681 36.6157L27.0681 36.6158C27.2722 39.4466 29.3923 41.8115 31.8768 41.8115C34.357 41.8115 36.477 39.4464 36.681 36.6157C36.7864 35.1775 36.3462 33.8274 35.4286 32.8186C34.5246 31.8238 33.2597 31.2764 31.8768 31.2764C30.4865 31.2764 29.2168 31.8183 28.3163 32.8095ZM39.3082 49.913H24.4453C25.1785 46.3475 28.7541 44.6786 31.8768 44.6786C34.9994 44.6786 38.575 46.3475 39.3082 49.913Z" fill="#E76868" stroke="#E76868" stroke-width="0.5"/>
<rect x="19" y="27.1228" width="40.0264" height="28.8772" rx="3" stroke="#E76868" stroke-width="2"/>
<line x1="45.1675" y1="45.1929" x2="51.097" y2="45.1929" stroke="#E76868" stroke-width="2" stroke-linecap="round"/>
<line x1="45.1675" y1="49.8245" x2="55.0618" y2="49.8245" stroke="#E76868" stroke-width="2" stroke-linecap="round"/>
<mask id="path-6-outside-1_897_586" maskUnits="userSpaceOnUse" x="44.5376" y="21" width="22" height="22" fill="black">
<rect fill="white" x="44.5376" y="21" width="22" height="22"/>
<path d="M55.2689 24C51.0059 24 47.5376 27.3763 47.5376 31.5263C47.5376 35.6763 51.0059 39.0526 55.2689 39.0526C59.5319 39.0526 63.0001 35.6763 63.0001 31.5263C63.0001 27.3763 59.5319 24 55.2689 24ZM58.0681 33.4329C58.1257 33.4861 58.1717 33.55 58.2035 33.6208C58.2352 33.6916 58.2521 33.7679 58.2532 33.8452C58.2542 33.9224 58.2393 33.9991 58.2094 34.0707C58.1795 34.1423 58.1351 34.2073 58.079 34.262C58.0229 34.3166 57.9561 34.3598 57.8826 34.3889C57.809 34.418 57.7303 34.4325 57.6509 34.4315C57.5715 34.4305 57.4931 34.414 57.4204 34.3831C57.3477 34.3522 57.282 34.3074 57.2273 34.2513L55.2689 32.3452L53.3104 34.2513C53.198 34.3553 53.0483 34.4125 52.8932 34.4105C52.7381 34.4086 52.5899 34.3478 52.4803 34.241C52.3706 34.1342 52.3081 33.99 52.3061 33.839C52.3041 33.6881 52.3628 33.5423 52.4696 33.4329L54.4277 31.5263L52.4696 29.6198C52.3628 29.5103 52.3041 29.3646 52.3061 29.2136C52.3081 29.0626 52.3706 28.9184 52.4803 28.8116C52.5899 28.7049 52.7381 28.644 52.8932 28.6421C53.0483 28.6402 53.198 28.6973 53.3104 28.8013L55.2689 30.7075L57.2273 28.8013C57.3398 28.6973 57.4895 28.6402 57.6446 28.6421C57.7997 28.644 57.9478 28.7049 58.0575 28.8116C58.1672 28.9184 58.2296 29.0626 58.2316 29.2136C58.2336 29.3646 58.1749 29.5103 58.0681 29.6198L56.11 31.5263L58.0681 33.4329Z"/>
</mask>
<path d="M55.2689 24C51.0059 24 47.5376 27.3763 47.5376 31.5263C47.5376 35.6763 51.0059 39.0526 55.2689 39.0526C59.5319 39.0526 63.0001 35.6763 63.0001 31.5263C63.0001 27.3763 59.5319 24 55.2689 24ZM58.0681 33.4329C58.1257 33.4861 58.1717 33.55 58.2035 33.6208C58.2352 33.6916 58.2521 33.7679 58.2532 33.8452C58.2542 33.9224 58.2393 33.9991 58.2094 34.0707C58.1795 34.1423 58.1351 34.2073 58.079 34.262C58.0229 34.3166 57.9561 34.3598 57.8826 34.3889C57.809 34.418 57.7303 34.4325 57.6509 34.4315C57.5715 34.4305 57.4931 34.414 57.4204 34.3831C57.3477 34.3522 57.282 34.3074 57.2273 34.2513L55.2689 32.3452L53.3104 34.2513C53.198 34.3553 53.0483 34.4125 52.8932 34.4105C52.7381 34.4086 52.5899 34.3478 52.4803 34.241C52.3706 34.1342 52.3081 33.99 52.3061 33.839C52.3041 33.6881 52.3628 33.5423 52.4696 33.4329L54.4277 31.5263L52.4696 29.6198C52.3628 29.5103 52.3041 29.3646 52.3061 29.2136C52.3081 29.0626 52.3706 28.9184 52.4803 28.8116C52.5899 28.7049 52.7381 28.644 52.8932 28.6421C53.0483 28.6402 53.198 28.6973 53.3104 28.8013L55.2689 30.7075L57.2273 28.8013C57.3398 28.6973 57.4895 28.6402 57.6446 28.6421C57.7997 28.644 57.9478 28.7049 58.0575 28.8116C58.1672 28.9184 58.2296 29.0626 58.2316 29.2136C58.2336 29.3646 58.1749 29.5103 58.0681 29.6198L56.11 31.5263L58.0681 33.4329Z" fill="#E76868"/>
<path d="M58.0681 33.4329L55.9753 35.5823L56.0029 35.6091L56.0311 35.6353L58.0681 33.4329ZM57.2273 34.2513L59.3743 32.156L59.3474 32.1284L59.3198 32.1015L57.2273 34.2513ZM55.2689 32.3452L57.3613 30.1953L55.2689 28.1588L53.1764 30.1953L55.2689 32.3452ZM53.3104 34.2513L55.3474 36.4538L55.3754 36.4278L55.4028 36.4012L53.3104 34.2513ZM52.4696 33.4329L50.3768 31.2834L50.3494 31.3101L50.3226 31.3375L52.4696 33.4329ZM54.4277 31.5263L56.5206 33.6757L58.7281 31.5263L56.5206 29.3769L54.4277 31.5263ZM52.4696 29.6198L50.3226 31.7151L50.3494 31.7425L50.3768 31.7692L52.4696 29.6198ZM53.3104 28.8013L55.4028 26.6515L55.3754 26.6248L55.3474 26.5988L53.3104 28.8013ZM55.2689 30.7075L53.1764 32.8573L55.2689 34.8939L57.3613 32.8573L55.2689 30.7075ZM57.2273 28.8013L55.1904 26.5988L55.1623 26.6248L55.1349 26.6515L57.2273 28.8013ZM58.0681 29.6198L60.161 31.7692L60.1884 31.7425L60.2151 31.7151L58.0681 29.6198ZM56.11 31.5263L54.0172 29.3769L51.8096 31.5263L54.0172 33.6757L56.11 31.5263ZM55.2689 21C49.4255 21 44.5376 25.644 44.5376 31.5263H50.5376C50.5376 29.1087 52.5863 27 55.2689 27V21ZM44.5376 31.5263C44.5376 37.4086 49.4255 42.0526 55.2689 42.0526V36.0526C52.5863 36.0526 50.5376 33.944 50.5376 31.5263H44.5376ZM55.2689 42.0526C61.1122 42.0526 66.0001 37.4086 66.0001 31.5263H60.0001C60.0001 33.944 57.9515 36.0526 55.2689 36.0526V42.0526ZM66.0001 31.5263C66.0001 25.644 61.1122 21 55.2689 21V27C57.9515 27 60.0001 29.1087 60.0001 31.5263H66.0001ZM56.0311 35.6353C55.7952 35.4171 55.6018 35.1506 55.4665 34.8491L60.9405 32.3925C60.7416 31.9494 60.4561 31.5551 60.1051 31.2304L56.0311 35.6353ZM55.4665 34.8491C55.3311 34.5475 55.2578 34.2193 55.2534 33.8846L61.2529 33.8057C61.2465 33.3165 61.1394 32.8357 60.9405 32.3925L55.4665 34.8491ZM55.2534 33.8846C55.249 33.55 55.3136 33.2197 55.4413 32.9142L60.9775 35.2273C61.165 34.7785 61.2593 34.2949 61.2529 33.8057L55.2534 33.8846ZM55.4413 32.9142C55.5688 32.6088 55.7556 32.337 55.9864 32.1123L60.1717 36.4116C60.5147 36.0777 60.7901 35.6757 60.9775 35.2273L55.4413 32.9142ZM55.9864 32.1123C56.217 31.8879 56.4869 31.7149 56.7781 31.5996L58.987 37.1782C59.4253 37.0046 59.8288 36.7453 60.1717 36.4116L55.9864 32.1123ZM56.7781 31.5996C57.0693 31.4843 57.3785 31.4279 57.6883 31.4317L57.6135 37.4313C58.082 37.4371 58.5488 37.3517 58.987 37.1782L56.7781 31.5996ZM57.6883 31.4317C57.9981 31.4356 58.306 31.4997 58.5946 31.6224L56.2462 37.1438C56.6803 37.3284 57.1449 37.4254 57.6135 37.4313L57.6883 31.4317ZM58.5946 31.6224C58.8832 31.7452 59.1491 31.9253 59.3743 32.156L55.0803 36.3467C55.4149 36.6895 55.8121 36.9591 56.2462 37.1438L58.5946 31.6224ZM59.3198 32.1015L57.3613 30.1953L53.1764 34.495L55.1349 36.4012L59.3198 32.1015ZM53.1764 30.1953L51.218 32.1015L55.4028 36.4012L57.3613 34.495L53.1764 30.1953ZM51.2734 32.0489C51.7328 31.6241 52.3284 31.4033 52.9306 31.4108L52.8558 37.4103C53.7681 37.4217 54.6632 37.0866 55.3474 36.4538L51.2734 32.0489ZM52.9306 31.4108C53.5328 31.4183 54.1236 31.654 54.5729 32.0914L50.3876 36.3906C51.0563 37.0415 51.9434 37.3989 52.8558 37.4103L52.9306 31.4108ZM54.5729 32.0914C55.0248 32.5313 55.2972 33.1425 55.3059 33.7996L49.3064 33.8785C49.319 34.8375 49.7164 35.7372 50.3876 36.3906L54.5729 32.0914ZM55.3059 33.7996C55.3145 34.4568 55.0581 35.0758 54.6166 35.5282L50.3226 31.3375C49.6675 32.0088 49.2938 32.9194 49.3064 33.8785L55.3059 33.7996ZM54.5625 35.5823L56.5206 33.6757L52.3349 29.3769L50.3768 31.2834L54.5625 35.5823ZM56.5206 29.3769L54.5625 27.4703L50.3768 31.7692L52.3349 33.6757L56.5206 29.3769ZM54.6166 27.5244C55.0581 27.9768 55.3145 28.5959 55.3059 29.253L49.3064 29.1741C49.2938 30.1333 49.6675 31.0438 50.3226 31.7151L54.6166 27.5244ZM55.3059 29.253C55.2972 29.9101 55.0248 30.5214 54.5729 30.9613L50.3876 26.662C49.7164 27.3154 49.319 28.2151 49.3064 29.1741L55.3059 29.253ZM54.5729 30.9613C54.1236 31.3987 53.5328 31.6344 52.9306 31.6419L52.8558 25.6423C51.9434 25.6537 51.0563 26.0111 50.3876 26.662L54.5729 30.9613ZM52.9306 31.6419C52.3284 31.6494 51.7328 31.4286 51.2734 31.0037L55.3474 26.5988C54.6632 25.966 53.7681 25.631 52.8558 25.6423L52.9306 31.6419ZM51.218 30.9511L53.1764 32.8573L57.3613 28.5576L55.4028 26.6515L51.218 30.9511ZM57.3613 32.8573L59.3198 30.9511L55.1349 26.6515L53.1764 28.5576L57.3613 32.8573ZM59.2643 31.0037C58.805 31.4286 58.2093 31.6494 57.6072 31.6419L57.682 25.6423C56.7697 25.631 55.8746 25.966 55.1904 26.5988L59.2643 31.0037ZM57.6072 31.6419C57.005 31.6344 56.4142 31.3987 55.9649 30.9613L60.1501 26.662C59.4815 26.0111 58.5943 25.6537 57.682 25.6423L57.6072 31.6419ZM55.9649 30.9613C55.513 30.5214 55.2405 29.9101 55.2319 29.253L61.2314 29.1741C61.2188 28.2151 60.8213 27.3154 60.1501 26.662L55.9649 30.9613ZM55.2319 29.253C55.2232 28.5958 55.4797 27.9768 55.9211 27.5244L60.2151 31.7151C60.8702 31.0438 61.244 30.1333 61.2314 29.1741L55.2319 29.253ZM55.9753 27.4703L54.0172 29.3769L58.2029 33.6757L60.161 31.7692L55.9753 27.4703ZM54.0172 33.6757L55.9753 35.5823L60.161 31.2834L58.2029 29.3769L54.0172 33.6757Z" fill="#FFE5E5" mask="url(#path-6-outside-1_897_586)"/>
</svg>
