<svg width="142" height="143" viewBox="0 0 142 143" fill="none" xmlns="http://www.w3.org/2000/svg">
<path d="M70.9721 0.211426C110.202 0.211426 142 32.0091 142 71.2394C142 110.47 110.202 142.239 71 142.239C31.7698 142.239 1.84009e-05 110.442 1.84009e-05 71.2394C-0.0279234 32.0091 31.7698 0.211426 70.9721 0.211426Z" fill="#8247E5"/>
<mask id="mask0_934_64" style="mask-type:luminance" maskUnits="userSpaceOnUse" x="23" y="30" width="95" height="83">
<path d="M117.02 30.9194H23.946V112.481H117.02V30.9194Z" fill="white"/>
</mask>
<g mask="url(#mask0_934_64)">
<path d="M94.2475 55.7598C92.543 54.7818 90.3636 54.7818 88.4356 55.7598L74.8559 63.807L65.6351 68.9204L52.3069 76.9397C50.6025 77.9176 48.423 77.9176 46.4951 76.9397L36.0728 70.5969C34.3683 69.6189 33.1668 67.663 33.1668 65.4835V53.3009C33.1668 51.345 34.1448 49.417 36.0728 48.1876L46.4951 42.0963C48.1995 41.1183 50.3789 41.1183 52.3069 42.0963L62.7292 48.4391C64.4336 49.417 65.6351 51.373 65.6351 53.5524V61.5996L74.8559 56.2348V47.9641C74.8559 46.0081 73.878 44.0802 71.95 42.8507L52.5584 31.3946C50.854 30.4166 48.6745 30.4166 46.7465 31.3946L26.8799 43.1022C24.952 44.0802 23.974 46.0361 23.974 47.9641V70.8484C23.974 72.8043 24.952 74.7323 26.8799 75.9617L46.523 87.4178C48.2274 88.3958 50.4069 88.3958 52.3349 87.4178L65.6631 79.6221L74.8839 74.2572L88.2121 66.4615C89.9165 65.4835 92.096 65.4835 94.024 66.4615L104.446 72.5528C106.151 73.5308 107.352 75.4867 107.352 77.6661V89.8488C107.352 91.8047 106.374 93.7327 104.446 94.9621L94.2754 101.053C92.571 102.031 90.3915 102.031 88.4636 101.053L78.0133 94.9621C76.3089 93.9841 75.1074 92.0282 75.1074 89.8488V82.053L65.8866 87.4178V95.465C65.8866 97.421 66.8646 99.3489 68.7926 100.578L88.4356 112.035C90.1401 113.012 92.3195 113.012 94.2475 112.035L113.891 100.578C115.595 99.6004 116.796 97.6445 116.796 95.465V72.3293C116.796 70.3733 115.819 68.4454 113.891 67.2159L94.2475 55.7598Z" fill="white"/>
</g>
</svg>
