<svg width="40" height="40" viewBox="0 0 40 40" fill="none" xmlns="http://www.w3.org/2000/svg">
<rect width="40" height="40" rx="20" fill="#44484F"/>
<path fill-rule="evenodd" clip-rule="evenodd" d="M16.5835 13.125C16.9287 13.125 17.2085 13.4048 17.2085 13.75V24.7411L20.5166 21.4331C20.7606 21.189 21.1564 21.189 21.4004 21.4331C21.6445 21.6771 21.6445 22.0729 21.4004 22.3169L17.0254 26.6919C16.7814 26.936 16.3856 26.936 16.1416 26.6919L11.7666 22.3169C11.5225 22.0729 11.5225 21.6771 11.7666 21.4331C12.0106 21.189 12.4064 21.189 12.6504 21.4331L15.9585 24.7411V13.75C15.9585 13.4048 16.2383 13.125 16.5835 13.125ZM23.6416 13.3081C23.8856 13.064 24.2814 13.064 24.5254 13.3081L28.9004 17.6831C29.1445 17.9271 29.1445 18.3229 28.9004 18.5669C28.6564 18.811 28.2606 18.811 28.0166 18.5669L24.7085 15.2589V26.25C24.7085 26.5952 24.4287 26.875 24.0835 26.875C23.7383 26.875 23.4585 26.5952 23.4585 26.25V15.2589L20.1504 18.5669C19.9064 18.811 19.5106 18.811 19.2666 18.5669C19.0225 18.3229 19.0225 17.9271 19.2666 17.6831L23.6416 13.3081Z" fill="#F5F5F5"/>
</svg>
