<svg width="122" height="122" viewBox="0 0 122 122" fill="none" xmlns="http://www.w3.org/2000/svg">
<path d="M61 0.0625C27.3994 0.0625 0.0625 27.3994 0.0625 61C0.0625 94.6006 27.3994 121.938 61 121.938C94.6006 121.938 121.938 94.6006 121.938 61C121.938 27.3994 94.6006 0.0625 61 0.0625ZM92.7139 40.5771L53.3389 87.4521C52.907 87.9666 52.3695 88.3822 51.7629 88.6708C51.1564 88.9595 50.4949 89.1143 49.8232 89.125H49.7441C49.0871 89.1248 48.4375 88.9864 47.8374 88.7189C47.2373 88.4514 46.7001 88.0608 46.2607 87.5723L29.3857 68.8223C28.9572 68.3677 28.6238 67.8321 28.4052 67.2468C28.1866 66.6616 28.0872 66.0386 28.1128 65.4144C28.1384 64.7902 28.2886 64.1774 28.5544 63.6121C28.8202 63.0467 29.1964 62.5402 29.6608 62.1223C30.1251 61.7044 30.6684 61.3835 31.2585 61.1786C31.8487 60.9736 32.4738 60.8887 33.0973 60.9288C33.7207 60.9689 34.3298 61.1332 34.8889 61.4121C35.4479 61.691 35.9455 62.0788 36.3525 62.5527L49.6211 77.2949L85.5361 34.5479C86.3417 33.6164 87.4815 33.0395 88.7091 32.9416C89.9367 32.8438 91.1535 33.233 92.0964 34.0251C93.0394 34.8172 93.6327 35.9485 93.7483 37.1745C93.8638 38.4006 93.4922 39.6229 92.7139 40.5771Z" fill="#42A153"/>
</svg>
