<svg width="48" height="48" viewBox="0 0 48 48" fill="none" xmlns="http://www.w3.org/2000/svg">
<rect width="48" height="48" rx="8" fill="#53AE7D"/>
<path d="M16.453 8.61747C16.3612 8.6306 16.0659 8.67653 15.8034 8.71591C14.0118 8.97841 12.2071 10.1597 11.1571 11.7543C10.4615 12.8109 10.1005 13.9134 10.0415 15.1865L10.0021 15.9872L9.75929 16.1512C9.23429 16.499 8.77491 17.2537 8.6371 18.0018C8.59116 18.2315 8.57804 18.7893 8.59773 19.3734C8.62398 20.174 8.65023 20.43 8.76835 20.7318C8.9521 21.2043 9.31304 21.6965 9.71335 22.005L10.0218 22.2478V24V25.7587L9.6871 26.0081C9.29991 26.3034 8.90616 26.8678 8.72898 27.36C8.63054 27.6487 8.61085 27.9112 8.61085 28.9218C8.61085 30.0243 8.63054 30.1687 8.76179 30.5034C8.97835 31.0415 9.28023 31.4681 9.66741 31.7634L10.0021 32.0259L10.0415 32.82C10.2055 36.2259 12.824 38.9559 16.2955 39.3562C16.7549 39.4087 19.334 39.4218 25.1484 39.4087C33.253 39.3825 33.358 39.3825 33.9093 39.2447C35.2546 38.9034 36.239 38.3784 37.184 37.4859C37.8534 36.8559 38.2602 36.2981 38.6737 35.4515C39.0674 34.6312 39.2643 33.9618 39.3627 33.0562C39.4021 32.6493 39.4218 29.3353 39.4021 23.5406C39.3824 15.5212 39.3693 14.6025 39.2709 14.2087C38.9165 12.7715 38.3784 11.7543 37.4596 10.7897C36.449 9.7331 35.3334 9.1031 33.8109 8.72903C33.3909 8.6306 32.6165 8.61747 24.9843 8.60435C20.384 8.59778 16.5449 8.60435 16.453 8.61747ZM33.2859 11.4984C34.4737 11.7478 35.5762 12.6009 36.1274 13.6968C36.6196 14.6878 36.5999 14.1365 36.5999 24C36.5999 31.4747 36.5802 32.8987 36.5015 33.2859C36.2587 34.4606 35.3859 35.5828 34.303 36.1275C33.3187 36.6197 33.7846 36.6 24.7349 36.6C17.6343 36.6 16.5843 36.5868 16.1446 36.495C14.9043 36.239 13.828 35.4187 13.2637 34.29C12.778 33.3253 12.8109 34.0537 12.8109 24C12.8109 13.9528 12.778 14.6747 13.2637 13.7165C13.8149 12.614 14.8124 11.82 16.0134 11.5247C16.453 11.4197 17.0634 11.4065 24.6562 11.4065C31.5862 11.4 32.8987 11.4197 33.2859 11.4984Z" fill="#F5F5F5"/>
<path d="M24.1313 14.3268C23.8294 14.4581 23.626 14.6549 23.4553 14.9765C23.3306 15.1996 23.311 15.3702 23.2913 16.1971L23.265 17.1487L22.8319 17.2602C20.4825 17.8706 18.5138 19.8984 17.8969 22.3396L17.8247 22.6218H16.906C16.23 22.6218 15.9281 22.6481 15.7444 22.7202C14.6353 23.1862 14.6353 24.8137 15.7444 25.2796C15.9281 25.3518 16.23 25.3781 16.906 25.3781H17.8247L17.8969 25.6537C18.1135 26.5265 18.5925 27.524 19.1175 28.2131C20.0363 29.414 21.4538 30.3852 22.8319 30.7396L23.265 30.8512L23.2913 31.8027C23.3175 32.8331 23.3897 33.0956 23.7506 33.4302C24.2756 33.9224 25.2206 33.8765 25.7194 33.3449C26.041 33.0037 26.1 32.7477 26.1 31.7634V30.8577L26.6447 30.7068C28.8956 30.0899 30.8381 28.1474 31.4222 25.9227L31.5666 25.3781H32.4919C33.2531 25.3781 33.4631 25.3518 33.6797 25.2534C34.756 24.7546 34.7691 23.2977 33.6994 22.7465C33.4894 22.6415 33.3122 22.6218 32.5116 22.6218H31.5666L31.4222 22.0771C31.2516 21.4406 30.7791 20.4562 30.3656 19.8984C29.4731 18.6843 28.3247 17.8509 26.8941 17.3652C26.5856 17.2602 26.2838 17.1749 26.2181 17.1749C26.1066 17.1749 26.1 17.0962 26.1 16.2562C26.1 15.2456 26.041 14.9962 25.7194 14.6615C25.3191 14.2415 24.6563 14.0971 24.1313 14.3268ZM25.936 19.9968C27.3206 20.4234 28.3838 21.539 28.7644 22.9565C28.9088 23.5077 28.9088 24.4921 28.7644 25.0434C28.1803 27.2156 26.0213 28.5609 23.836 28.1015C22.3069 27.7799 20.9813 26.4937 20.6269 24.9843C20.5678 24.7481 20.5219 24.3084 20.5219 23.9999C20.5219 22.8252 20.9025 21.9131 21.736 21.0731C22.6153 20.1806 23.6325 19.7737 24.8531 19.8262C25.2338 19.8459 25.6538 19.9115 25.936 19.9968Z" fill="#F5F5F5"/>
<path d="M24.0129 22.0181C23.5798 22.1756 23.2386 22.4446 22.9695 22.8449C22.6873 23.2584 22.602 23.6062 22.6348 24.164C22.6873 24.9252 23.1007 25.5487 23.7898 25.8834C24.2886 26.1327 25.0432 26.1459 25.542 25.9162C26.8742 25.3059 27.2023 23.639 26.1982 22.5627C25.6536 21.9787 24.7545 21.7556 24.0129 22.0181Z" fill="#F5F5F5"/>
</svg>
