<svg width="24" height="24" viewBox="0 0 24 24" fill="none" xmlns="http://www.w3.org/2000/svg">
<g id="arrow-up-circle">
<path id="Vector" d="M12 21.75C6.61547 21.75 2.25 17.3845 2.25 12C2.25 6.61547 6.61547 2.25 12 2.25C17.3845 2.25 21.75 6.61547 21.75 12C21.75 17.3845 17.3845 21.75 12 21.75ZM16.2825 11.782C16.2131 11.7121 16.1307 11.6565 16.0398 11.6184C15.949 11.5804 15.8515 11.5606 15.753 11.5602C15.6545 11.5598 15.5569 11.5788 15.4657 11.6162C15.3745 11.6535 15.2916 11.7084 15.2217 11.7778L12.75 14.2303V7.96875C12.75 7.76984 12.671 7.57907 12.5303 7.43842C12.3897 7.29777 12.1989 7.21875 12 7.21875C11.8011 7.21875 11.6103 7.29777 11.4697 7.43842C11.329 7.57907 11.25 7.76984 11.25 7.96875V14.2303L8.77828 11.7778C8.70829 11.7084 8.62532 11.6535 8.53411 11.6162C8.4429 11.5789 8.34523 11.5599 8.24669 11.5604C8.14814 11.5608 8.05064 11.5806 7.95977 11.6188C7.86889 11.6569 7.78641 11.7125 7.71703 11.7825C7.64766 11.8525 7.59275 11.9355 7.55544 12.0267C7.51813 12.1179 7.49915 12.2155 7.49958 12.3141C7.50002 12.4126 7.51986 12.5101 7.55797 12.601C7.59609 12.6919 7.65173 12.7744 7.72172 12.8438L11.4717 16.5652C11.6122 16.7046 11.8021 16.7828 12 16.7828C12.1979 16.7828 12.3878 16.7046 12.5283 16.5652L16.2783 12.8438C16.3484 12.7744 16.4041 12.6918 16.4422 12.6009C16.4804 12.51 16.5002 12.4124 16.5006 12.3138C16.501 12.2151 16.4819 12.1174 16.4445 12.0262C16.4071 11.9349 16.352 11.852 16.2825 11.782Z" fill="#F5F5F5"/>
</g>
</svg>
